<svg width="27" height="27" viewBox="0 0 27 27" fill="none" xmlns="http://www.w3.org/2000/svg">
<rect x="6" y="11" width="3" height="4" fill="#4FCD6A"/>
<path d="M19.75 8.29163C19.75 8.56496 19.7325 8.83419 19.6984 9.09826C21.595 10.1714 22.875 12.207 22.875 14.5416C22.875 17.9934 20.0768 20.7916 16.625 20.7916C15.8945 20.7916 15.1933 20.6663 14.5417 20.436V23.9166H12.4583V20.1669C11.677 20.5663 10.7919 20.7916 9.85417 20.7916C6.69003 20.7916 4.125 18.2266 4.125 15.0625C4.125 13.5493 4.71158 12.1732 5.66976 11.1491C6.08047 12.2741 6.7265 13.2858 7.54767 14.1238L9.03567 12.6657C8.28199 11.8965 7.72609 10.935 7.44854 9.86129C7.31882 9.35976 7.25 8.83371 7.25 8.29163C7.25 4.83984 10.0482 2.04163 13.5 2.04163C16.9518 2.04163 19.75 4.83984 19.75 8.29163Z" fill="#4FCD6A"/>
<path d="M6.75 7.875C6.75 4.14708 9.77208 1.125 13.5 1.125C17.2279 1.125 20.25 4.14708 20.25 7.875C20.25 8.16991 20.231 8.46079 20.1942 8.74639C22.2412 9.90465 23.625 12.1022 23.625 14.625C23.625 18.3529 20.6029 21.375 16.875 21.375H14.625V24.75H12.375V21.375H9.5625C6.14523 21.375 3.375 18.6048 3.375 15.1875C3.375 12.6971 4.84551 10.5521 6.96485 9.57042C6.82464 9.0287 6.75 8.46044 6.75 7.875ZM7.88585 11.6234C6.54948 12.2533 5.625 13.6134 5.625 15.1875C5.625 17.3621 7.38788 19.125 9.5625 19.125H16.875C19.3602 19.125 21.375 17.1102 21.375 14.625C21.375 12.7188 20.1894 11.0867 18.5112 10.4314L17.5645 10.0617C17.7645 9.34129 18 8.63081 18 7.875C18 5.38972 15.9852 3.375 13.5 3.375C11.0147 3.375 9 5.38972 9 7.875C9 9.34631 9.70493 10.6527 10.8002 11.4756L9.44869 13.2744C8.83988 12.817 8.31056 12.2583 7.88585 11.6234Z" fill="black"/>
</svg>
